<svg width="24" height="24" viewBox="0 0 24 24" fill="none" xmlns="http://www.w3.org/2000/svg">
<path fill-rule="evenodd" clip-rule="evenodd" d="M12 0C5.376 0 0 5.376 0 12C0 18.624 5.376 24 12 24C18.624 24 24 18.624 24 12C24 5.376 18.624 0 12 0ZM11.9999 10.6802C11.2679 10.6802 10.6799 11.2682 10.6799 12.0002C10.6799 12.7322 11.2679 13.3202 11.9999 13.3202C12.7319 13.3202 13.3199 12.7322 13.3199 12.0002C13.3199 11.2682 12.7319 10.6802 11.9999 10.6802ZM4.79999 19.2L14.628 14.628L19.2 4.80005L9.37199 9.37204L4.79999 19.2Z" fill="#2B292D"/>
</svg>
