<svg width="22" height="22" viewBox="0 0 22 22" fill="none" xmlns="http://www.w3.org/2000/svg">
<path fill-rule="evenodd" clip-rule="evenodd" d="M19.5551 0H2.44396C1.09951 0 -0.000488281 1.1 -0.000488281 2.44445V11C-0.000488281 12.3445 1.09951 13.4445 2.44396 13.4445H19.5551C20.8995 13.4445 21.9995 12.3445 21.9995 11V2.44445C21.9995 1.1 20.8995 0 19.5551 0ZM19.5552 7.33334H14.6664C14.6664 9.31334 12.9797 11 10.9997 11C9.0197 11 7.33303 9.31334 7.33303 7.33334H2.44415V2.44446H19.5552V7.33334ZM21.9995 15.8886H14.6662C14.6662 17.9175 13.0284 19.5553 10.9995 19.5553C8.97062 19.5553 7.33285 17.9175 7.33285 15.8886H-0.000488281V19.5553C-0.000488281 20.8997 1.09951 21.9997 2.44396 21.9997H19.5551C20.8995 21.9997 21.9995 20.8997 21.9995 19.5553V15.8886Z" fill="#2B292D"/>
</svg>
